<svg width="206" height="206" viewBox="0 0 206 206" fill="none" xmlns="http://www.w3.org/2000/svg">
<g clip-path="url(#clip0_8_22)">
<rect width="206" height="206" rx="40" fill="black"/>
<g clip-path="url(#clip1_8_22)">
<path d="M70.2692 126.641H47V61H70.4615C77.0641 61 82.7479 62.3141 87.5128 64.9423C92.2778 67.5491 95.9423 71.2991 98.5064 76.1923C101.092 81.0855 102.385 86.9402 102.385 93.7564C102.385 100.594 101.092 106.47 98.5064 111.385C95.9423 116.299 92.2564 120.071 87.4487 122.699C82.6624 125.327 76.9359 126.641 70.2692 126.641ZM60.8782 114.75H69.6923C73.7949 114.75 77.2457 114.024 80.0449 112.571C82.8654 111.096 84.9808 108.821 86.391 105.744C87.8226 102.645 88.5385 98.6496 88.5385 93.7564C88.5385 88.906 87.8226 84.9423 86.391 81.8654C84.9808 78.7885 82.8761 76.5235 80.0769 75.0705C77.2778 73.6175 73.8269 72.891 69.7244 72.891H60.8782V114.75Z" fill="white"/>
<path d="M120.838 145.103C119.107 145.103 117.483 144.964 115.966 144.686C114.471 144.429 113.231 144.098 112.248 143.692L115.325 133.5C116.928 133.991 118.37 134.259 119.652 134.301C120.956 134.344 122.077 134.045 123.018 133.404C123.979 132.763 124.759 131.673 125.357 130.135L126.159 128.051L108.498 77.4103H122.857L133.05 113.564H133.562L143.851 77.4103H158.306L139.171 131.962C138.253 134.611 137.003 136.919 135.421 138.885C133.862 140.872 131.885 142.4 129.492 143.468C127.099 144.558 124.214 145.103 120.838 145.103Z" fill="white"/>
<path d="M173.274 127.474C171.159 127.474 169.342 126.727 167.825 125.231C166.33 123.714 165.582 121.897 165.582 119.782C165.582 117.688 166.33 115.893 167.825 114.397C169.342 112.902 171.159 112.154 173.274 112.154C175.325 112.154 177.12 112.902 178.659 114.397C180.197 115.893 180.966 117.688 180.966 119.782C180.966 121.192 180.603 122.485 179.877 123.66C179.171 124.814 178.242 125.744 177.088 126.449C175.934 127.132 174.663 127.474 173.274 127.474Z" fill="#0D99FF"/>
</g>
</g>
<defs>
<clipPath id="clip0_8_22">
<rect width="206" height="206" fill="white"/>
</clipPath>
<clipPath id="clip1_8_22">
<rect width="134" height="84" fill="white" transform="translate(47 61)"/>
</clipPath>
</defs>
</svg>
